<svg width="250" height="62" viewBox="0 0 250 62" fill="none" xmlns="http://www.w3.org/2000/svg">
<path fill-rule="evenodd" clip-rule="evenodd" d="M4.266 24.01V61H10.26V46.96H24.354V41.722H10.26V29.248H27.216V24.01H4.266ZM45.538 61H66.274V55.654H51.532V24.01H45.538V61ZM96.6701 56.356C93.2141 56.356 90.8741 55.294 89.6501 53.17C88.4261 51.046 87.8141 47.554 87.8141 42.694C87.8141 37.798 88.4441 34.234 89.7041 32.002C90.9641 29.77 93.2861 28.654 96.6701 28.654C100.054 28.654 102.358 29.77 103.582 32.002C104.842 34.234 105.472 37.816 105.472 42.748C105.472 47.644 104.86 51.136 103.636 53.224C102.448 55.312 100.126 56.356 96.6701 56.356ZM96.6701 61.594C102.25 61.594 106.138 60.082 108.334 57.058C110.566 54.034 111.682 49.246 111.682 42.694C111.682 36.142 110.566 31.3 108.334 28.168C106.102 25 102.214 23.416 96.6701 23.416C91.1261 23.416 87.2201 25 84.9521 28.168C82.7201 31.336 81.6041 36.178 81.6041 42.694C81.6041 49.21 82.7201 53.998 84.9521 57.058C87.1841 60.082 91.0901 61.594 96.6701 61.594ZM144.798 56.356C141.342 56.356 139.002 55.294 137.778 53.17C136.554 51.046 135.942 47.554 135.942 42.694C135.942 37.798 136.572 34.234 137.832 32.002C139.092 29.77 141.414 28.654 144.798 28.654C148.182 28.654 150.486 29.77 151.71 32.002C152.97 34.234 153.6 37.816 153.6 42.748C153.6 47.644 152.988 51.136 151.764 53.224C150.576 55.312 148.254 56.356 144.798 56.356ZM144.798 61.594C150.378 61.594 154.266 60.082 156.462 57.058C158.694 54.034 159.81 49.246 159.81 42.694C159.81 36.142 158.694 31.3 156.462 28.168C154.23 25 150.342 23.416 144.798 23.416C139.254 23.416 135.348 25 133.08 28.168C130.848 31.336 129.732 36.178 129.732 42.694C129.732 49.21 130.848 53.998 133.08 57.058C135.312 60.082 139.218 61.594 144.798 61.594ZM185.473 61V47.824H194.167L199.513 61H206.101L199.999 46.474C204.031 44.602 206.047 41.038 206.047 35.782C206.047 27.934 201.871 24.01 193.519 24.01H179.479V61H185.473ZM193.519 29.194C197.767 29.194 199.891 31.408 199.891 35.836C199.891 37.888 199.387 39.544 198.379 40.804C197.371 42.028 195.787 42.64 193.627 42.64H185.473V29.194H193.519ZM223.552 24.01V29.248H240.67V30.328L226.486 51H233.252L247.852 29.788V24.01H223.552ZM247.852 56H223.552V61H247.852V56Z" fill="black"/>
</svg>
