<svg width="244" height="39" viewBox="0 0 244 39" fill="none" xmlns="http://www.w3.org/2000/svg">
<path fill-rule="evenodd" clip-rule="evenodd" d="M0.265999 1.00998V38H6.26V23.96H20.354V18.722H6.26V6.24799H23.216V1.00998H0.265999ZM41.538 38H62.274V32.654H47.532V1.00998H41.538V38ZM92.6701 33.356C89.2141 33.356 86.8741 32.294 85.6501 30.17C84.4261 28.046 83.8141 24.554 83.8141 19.694C83.8141 14.798 84.4441 11.234 85.7041 9.00199C86.9641 6.76999 89.2861 5.65398 92.6701 5.65398C96.0541 5.65398 98.3581 6.76999 99.5821 9.00199C100.842 11.234 101.472 14.816 101.472 19.748C101.472 24.644 100.86 28.136 99.6361 30.224C98.4481 32.312 96.1261 33.356 92.6701 33.356ZM92.6701 38.594C98.2501 38.594 102.138 37.082 104.334 34.058C106.566 31.034 107.682 26.246 107.682 19.694C107.682 13.142 106.566 8.29998 104.334 5.16798C102.102 1.99998 98.2141 0.415985 92.6701 0.415985C87.1261 0.415985 83.2201 1.99998 80.9521 5.16798C78.7201 8.33598 77.6041 13.178 77.6041 19.694C77.6041 26.21 78.7201 30.998 80.9521 34.058C83.1841 37.082 87.0901 38.594 92.6701 38.594ZM140.798 33.356C137.342 33.356 135.002 32.294 133.778 30.17C132.554 28.046 131.942 24.554 131.942 19.694C131.942 14.798 132.572 11.234 133.832 9.00199C135.092 6.76999 137.414 5.65398 140.798 5.65398C144.182 5.65398 146.486 6.76999 147.71 9.00199C148.97 11.234 149.6 14.816 149.6 19.748C149.6 24.644 148.988 28.136 147.764 30.224C146.576 32.312 144.254 33.356 140.798 33.356ZM140.798 38.594C146.378 38.594 150.266 37.082 152.462 34.058C154.694 31.034 155.81 26.246 155.81 19.694C155.81 13.142 154.694 8.29998 152.462 5.16798C150.23 1.99998 146.342 0.415985 140.798 0.415985C135.254 0.415985 131.348 1.99998 129.08 5.16798C126.848 8.33598 125.732 13.178 125.732 19.694C125.732 26.21 126.848 30.998 129.08 34.058C131.312 37.082 135.218 38.594 140.798 38.594ZM181.473 38V24.824H190.167L195.513 38H202.101L195.999 23.474C200.031 21.602 202.047 18.038 202.047 12.782C202.047 4.93398 197.871 1.00998 189.519 1.00998H175.479V38H181.473ZM189.519 6.19398C193.767 6.19398 195.891 8.40798 195.891 12.836C195.891 14.888 195.387 16.544 194.379 17.804C193.371 19.028 191.787 19.64 189.627 19.64H181.473V6.19398H189.519ZM219.552 1.00998V6.24799H236.67V7.32799L222.486 28H229.252L243.852 6.78799V1.00998H219.552ZM243.852 33H219.552V38H243.852V33Z" fill="white"/>
</svg>
