<svg width="2440" height="919" viewBox="0 0 2440 919" fill="none" xmlns="http://www.w3.org/2000/svg">
<path d="M447 781L2073 112.932L1895 -264H46L447 781Z" fill="#F1EDE9"/>
<path d="M804 -163.731L71 154V86.5L804 -223V-163.731Z" stroke="white" stroke-width="2"/>
<path d="M2278.23 -168.545L1539.77 136.28L1540.95 68.7903L2279.27 -227.806L2278.23 -168.545Z" stroke="white" stroke-width="2"/>
<path d="M884 -66.7305L151 251V183.5L884 -126V-66.7305Z" stroke="white" stroke-width="2"/>
<path d="M2307.19 -52.0195L1568.73 252.806L1569.91 185.316L2308.23 -111.28L2307.19 -52.0195Z" stroke="white" stroke-width="2"/>
<path d="M3811.5 919L2185.5 250.932L2007 -126H4212.5L3811.5 919Z" fill="#F1EDE9" fill-opacity="0.4"/>
<path d="M437 863L-1189 194.932L-1011 -182H29L437 863Z" fill="#F1EDE9" fill-opacity="0.4"/>
</svg>
