<svg width="209" height="39" viewBox="0 0 209 39" fill="none" xmlns="http://www.w3.org/2000/svg">
<path d="M4.13294 32.0495L4.07069 32.4238C4.07553 32.494 4.1092 32.5562 4.17169 32.6107C4.24587 32.6643 4.32972 32.6878 4.42325 32.6814C4.51678 32.6749 4.58954 32.6229 4.64154 32.5254C6.22364 30.0903 7.52701 27.9564 8.55163 26.1236C9.57544 24.2792 10.3217 22.9238 10.7905 22.0574C11.271 21.1902 11.6521 20.5002 11.9338 19.9874C12.6868 18.6432 13.4432 17.434 14.203 16.3595C11.1013 17.3725 8.65615 17.9407 6.86744 18.0642C5.07873 18.1877 3.78507 18.1655 2.98644 17.9974C2.187 17.8177 1.65484 17.596 1.38996 17.3324C1.12427 17.0571 0.981329 16.7733 0.961148 16.481C0.940159 16.177 0.931668 15.884 0.935676 15.6018C0.942076 15.014 1.25971 14.5104 1.88856 14.0911C2.52911 13.671 3.06567 13.446 3.49823 13.4161C3.9308 13.3863 4.15152 13.4356 4.1604 13.5642C4.16928 13.6928 4.08202 13.8751 3.89861 14.1109C3.72608 14.3343 3.64265 14.4869 3.6483 14.5687C3.67413 14.9428 5.03735 15.0366 7.73795 14.8501C10.4385 14.6637 13.5179 14.0928 16.9759 13.1374C18.8737 11.3619 20.5533 10.4236 22.0147 10.3227C22.985 10.2557 23.647 10.486 24.0006 11.0137C24.2336 11.3265 24.3614 11.6466 24.384 11.974C24.4067 12.3013 24.2364 12.642 23.8732 12.996C23.5217 13.3491 23.0325 13.6648 22.4056 13.9431C21.2656 14.4447 19.9091 14.8731 18.3361 15.2284C17.7286 16.1279 16.8733 17.5202 15.77 19.4053C14.6785 21.2897 13.9324 22.5628 13.5317 23.2248C13.1311 23.8868 12.4896 25.0588 11.6073 26.7408C10.7366 28.4219 9.97966 29.8779 9.33635 31.1087C8.69224 32.3279 8.00056 33.5386 7.26131 34.7408C5.75258 37.2178 4.34352 38.5015 3.03414 38.5919C2.48466 38.6298 2.00109 38.5164 1.58342 38.2516C1.16575 37.9867 0.934306 37.527 0.889099 36.8723C0.843085 36.2059 1.14859 35.3567 1.80562 34.3246C2.47353 33.28 2.96731 32.6057 3.28698 32.3017C3.60664 31.9977 3.82492 31.8417 3.94183 31.8336C4.05874 31.8256 4.12244 31.8975 4.13294 32.0495ZM31.7104 30.5505C31.8294 31.0826 31.8998 31.5065 31.9216 31.8222C31.9426 32.1262 31.9027 32.3991 31.8019 32.641C31.712 32.8704 31.4887 33.2088 31.132 33.6563C30.7861 34.0913 30.3647 34.5375 29.8677 34.9947C28.6519 36.1006 27.3718 36.6999 26.0273 36.7928C24.0983 36.926 23.0749 36.1391 22.957 34.4323C22.8545 32.9475 23.9421 29.9005 26.2199 25.2912C26.3021 25.1211 26.3583 24.9998 26.3885 24.9272C25.5319 25.6207 23.9266 27.4642 21.5725 30.4576C19.2293 33.4386 17.6772 35.5427 16.9162 36.77C16.8533 36.88 16.686 37.009 16.4143 37.157C16.1426 37.305 15.925 37.3846 15.7613 37.3959C15.6093 37.4064 15.442 37.3651 15.2594 37.272C15.0659 37.1914 14.9457 37.1527 14.8989 37.1559C14.747 37.1664 14.6673 37.1191 14.6601 37.0138C14.6536 36.9203 14.8273 36.3739 15.1812 35.3744C15.5226 34.3642 15.9822 33.1108 16.5602 31.6143C18.143 27.4876 20.5487 22.0942 23.7772 15.4341C24.9082 13.1007 25.8039 11.4413 26.4641 10.456C26.9325 9.75408 27.7746 9.36115 28.9905 9.27719C29.2477 9.25943 29.3991 9.32533 29.4446 9.47489C29.4902 9.62445 29.519 9.78691 29.5311 9.96228C29.5432 10.1376 29.5203 10.3154 29.4622 10.4956L27.7881 13.5538C24.4708 19.6092 22.0026 24.6075 20.3835 28.5487C22.0539 26.2015 23.7068 24.3665 25.3422 23.0436C26.3536 22.2103 27.1224 21.7754 27.6485 21.7391C28.1863 21.702 28.6775 21.7561 29.1222 21.9016C29.566 22.0354 29.8102 22.4238 29.8546 23.0668C29.8707 23.3007 29.5505 24.192 28.8939 25.7409C26.9242 30.3877 25.9566 32.9624 25.9914 33.4651C26.0253 33.9561 26.2468 34.1875 26.656 34.1592C27.2522 34.1181 28.13 33.476 29.2893 32.233C30.1641 31.2916 30.7157 30.6897 30.9443 30.4272C31.0773 30.3123 31.2022 30.2508 31.3192 30.2428C31.5413 30.2274 31.6717 30.33 31.7104 30.5505ZM41.9292 21.8631C41.9825 22.6347 41.7137 23.3345 41.1227 23.9627C40.5435 24.59 39.8563 24.9311 39.0614 24.986C38.8042 25.0038 38.6306 24.957 38.5407 24.8457C38.45 24.7228 38.3978 24.562 38.384 24.3632C38.3703 24.1645 38.3804 23.9699 38.4142 23.7797C38.003 23.949 37.5503 24.1976 37.0561 24.5254C36.5619 24.8532 35.9605 25.3293 35.2518 25.9538C34.5431 26.5784 34.1985 27.0309 34.2179 27.3115C34.2243 27.405 34.362 27.4425 34.6309 27.4239C34.9115 27.4046 35.3317 27.2816 35.8917 27.055C36.4508 26.8167 36.8414 26.6898 37.0636 26.6745C37.2974 26.6584 37.4502 26.6596 37.5219 26.6781C37.6796 26.7494 37.8557 26.9193 38.0505 27.1878C38.2444 27.4446 38.347 27.6548 38.3583 27.8185C38.3688 27.9705 38.231 28.1856 37.9448 28.4638C37.6586 28.7419 37.3274 28.9645 36.9513 29.1314C36.5744 29.2867 36.324 29.4038 36.2003 29.4828C33.8287 31.0327 32.6607 32.0648 32.6963 32.5792C32.7592 33.4911 33.5682 33.8934 35.1231 33.786C36.1168 33.7174 37.0946 33.3327 38.0564 32.632C38.8727 32.0353 39.6009 31.4388 40.241 30.8425C40.892 30.2337 41.3008 29.8589 41.4673 29.7182C41.6455 29.5767 41.7813 29.5027 41.8748 29.4963C42.1788 29.4753 42.3542 29.8038 42.401 30.4819C42.4478 31.16 42.438 31.6129 42.3715 31.8407C42.3042 32.0567 42.0885 32.3359 41.7245 32.6782C39.3631 34.8852 37.066 36.0658 34.833 36.22C33.6405 36.3023 32.6764 36.2044 31.9407 35.9263C30.5901 35.4205 29.8725 34.5538 29.7877 33.3263C29.6763 31.7129 30.7084 30.4141 32.8841 29.4299C32.4261 29.2618 32.1223 29.0303 31.9727 28.7352C31.8223 28.4284 31.7237 27.936 31.6769 27.2579C31.6293 26.5681 31.8949 25.8215 32.4737 25.018C33.0634 24.202 33.8031 23.5166 34.6928 22.9618C36.6737 21.7091 38.4708 21.027 40.0842 20.9156C40.47 20.889 40.8681 20.9555 41.2785 21.1151C41.6889 21.2747 41.9058 21.524 41.9292 21.8631ZM54.6936 24.5233C54.3662 24.5459 54.1884 24.3526 54.1602 23.9434C54.1392 23.6394 54.2506 23.297 54.4945 22.916C54.75 22.5342 54.903 22.2828 54.9534 22.1619C55.0038 22.0409 55.1433 21.8492 55.3718 21.5868C55.6121 21.3235 55.8241 21.162 56.0079 21.1023C56.2034 21.0419 56.5973 20.9618 57.1895 20.8622C59.0012 20.5609 60.9818 20.3243 63.1313 20.1524C65.2249 16.4486 66.9488 13.6865 68.3032 11.8662C66.1445 12.4147 63.4751 12.7987 60.2952 13.0183C55.9813 13.3162 53.7577 12.5006 53.6245 10.5716C53.5865 10.0221 53.8282 9.52383 54.3494 9.0767C54.8823 8.62877 55.5696 8.37575 56.4114 8.31762C57.2648 8.25869 57.6984 8.3286 57.7121 8.52735C57.7194 8.63256 57.5886 8.69446 57.3197 8.71302C57.0625 8.73078 56.8238 8.84711 56.6037 9.062C56.3945 9.26439 56.296 9.45327 56.3081 9.62863C56.3267 9.89752 56.9132 10.0567 58.0678 10.1062C59.2224 10.1557 60.9922 10.0981 63.3771 9.93341C65.7738 9.76792 68.3542 9.37243 71.1185 8.74693C71.9896 7.92325 72.8152 7.29065 73.5952 6.84915C74.3869 6.40684 75.2036 6.15663 76.0454 6.0985C76.8871 6.04038 77.4495 6.18949 77.7326 6.54584C78.0156 6.90219 78.1636 7.1739 78.1765 7.36095C78.2011 7.5472 78.0836 7.80199 77.824 8.12533C77.5644 8.44867 77.1942 8.78552 76.7132 9.13589C75.5825 9.94226 74.0633 10.4818 72.1557 10.7545C70.2882 13.4794 68.3798 16.5479 66.4305 19.9598C67.3332 19.9327 68.1797 19.9447 68.9703 19.9958C69.76 20.0353 70.1727 20.3122 70.2082 20.8266C70.2227 21.037 69.9174 21.4634 69.2922 22.1056C69.2277 22.1923 69.1485 22.3211 69.0546 22.4921C68.8869 22.7856 68.7095 22.9388 68.5225 22.9517C68.3471 22.9638 68.1409 22.9545 67.9038 22.9239C66.9895 22.9518 66.3044 22.9815 65.8485 23.013L64.7098 23.1092C61.037 29.8 59.1393 33.2788 59.0168 33.5457C58.9051 33.8001 58.7719 33.9973 58.6171 34.1372C58.474 34.2763 58.2856 34.3539 58.0517 34.37C57.8179 34.3862 57.4877 34.3679 57.0612 34.3151C56.6355 34.274 56.3134 34.2023 56.0949 34.0999C55.8772 34.0092 55.7627 33.882 55.7514 33.7183C55.7393 33.543 55.7749 33.2938 55.8583 32.9709C56.0848 32.1683 57.8402 29.0105 61.1245 23.4978C58.7594 23.7785 56.8856 24.0313 55.5033 24.2559L54.6936 24.5233ZM75.8713 7.1501C75.6883 7.22147 75.4668 7.33074 75.2068 7.47791L75.8713 7.1501ZM83.2275 5.74354C83.7886 5.70479 84.2913 5.8404 84.7356 6.15038C85.1908 6.44786 85.441 6.92394 85.4862 7.57863C85.5314 8.23332 85.24 9.28715 84.612 10.7401C83.9833 12.1814 83.2108 13.6678 82.2946 15.1994C81.3776 16.7193 80.3326 18.342 79.1596 20.0676C77.3046 22.8034 75.5133 25.2705 73.7856 27.469C73.7836 27.6101 73.7491 27.8768 73.6823 28.269C73.6263 28.6488 73.6116 29.0316 73.6382 29.4174C73.6649 29.8032 73.8644 30.1418 74.237 30.4332C74.6204 30.7122 75.0751 30.8335 75.6012 30.7971C76.1273 30.7608 76.6755 30.535 77.246 30.1197C77.828 29.7037 78.3255 29.2523 78.7382 28.7657C79.8242 27.4808 80.5075 26.8287 80.788 26.8093C81.0686 26.7899 81.2384 27.2069 81.2973 28.0604L81.3215 28.4111C81.353 28.867 81.2942 29.2059 81.145 29.4276C80.2461 30.6996 79.2035 31.6761 78.0171 32.3571C76.83 33.0264 75.6869 33.399 74.5879 33.4749C73.489 33.5508 72.6301 33.2753 72.0112 32.6485C71.3915 32.0099 71.0413 31.1061 70.9606 29.937C70.8032 27.6573 71.2263 24.9381 72.2298 21.7795C73.2442 18.6083 74.4425 15.8884 75.8247 13.6199C78.9361 8.49491 81.4037 5.86947 83.2275 5.74354ZM82.6393 8.70907C82.6272 8.5337 82.5627 8.45006 82.4458 8.45813C82.0366 8.48638 81.0418 9.72974 79.4613 12.1882C77.8808 14.6467 76.7469 16.5986 76.0597 18.0439C75.3842 19.4884 74.7742 21.2866 74.2297 23.4386C75.4962 21.7066 77.2259 19.0264 79.4186 15.398C81.6223 11.7571 82.6958 9.52743 82.6393 8.70907ZM90.7511 18.2452C91.1018 18.221 91.4693 18.3542 91.8535 18.6448C92.2494 18.9346 92.4699 19.4069 92.5151 20.0616C92.5595 20.7046 92.3897 21.5621 92.0056 22.634C91.6207 23.6943 91.0679 24.7897 90.3472 25.9202C89.6256 27.0389 88.8182 28.1049 87.925 29.118C87.0426 30.1187 86.0671 30.9613 84.9984 31.646C83.9406 32.3181 82.9616 32.6852 82.0614 32.7474C81.1612 32.8095 80.417 32.579 79.8288 32.0558C79.2515 31.5201 78.9281 30.7495 78.8587 29.7441C78.7884 28.727 78.9564 27.5877 79.3627 26.3262C79.7807 25.064 80.349 23.9382 81.0677 22.9488C81.7856 21.9478 82.5747 21.0416 83.4349 20.2305C85.2348 18.5674 86.8537 17.6862 88.2917 17.5869C88.9347 17.5425 89.4307 17.6668 89.7799 17.9599C89.904 18.057 89.969 18.1465 89.9746 18.2283L89.9819 18.3335C90.1439 18.2989 90.4003 18.2694 90.7511 18.2452ZM89.1409 20.6998L89.0182 20.7083C88.609 20.7366 88.3838 20.4526 88.3426 19.8563C87.5086 20.1958 86.6481 20.7486 85.7613 21.5147C84.8745 22.2807 84.0959 23.1685 83.4255 24.178C82.0615 26.1986 81.4134 27.8703 81.4812 29.193C81.5264 29.8477 81.7887 30.1585 82.268 30.1254C82.7474 30.0923 83.4387 29.7274 84.3421 29.0307C85.2455 28.334 86.1186 27.3692 86.9614 26.1363C87.816 24.9027 88.4418 23.8434 88.8388 22.9584C89.2467 22.061 89.4401 21.4603 89.4191 21.1564C89.3973 20.8407 89.3046 20.6885 89.1409 20.6998ZM103.903 17.337C104.254 17.3128 104.622 17.446 105.006 17.7366C105.402 18.0265 105.622 18.4987 105.667 19.1534C105.712 19.7964 105.542 20.6539 105.158 21.7259C104.773 22.7862 104.22 23.8815 103.499 25.012C102.778 26.1308 101.971 27.1967 101.077 28.2099C100.195 29.2105 99.2193 30.0532 98.1507 30.7378C97.0929 31.4099 96.1139 31.7771 95.2137 31.8392C94.3135 31.9014 93.5693 31.6708 92.9811 31.1476C92.4038 30.6119 92.0804 29.8413 92.0109 28.8359C91.9407 27.8188 92.1087 26.6795 92.515 25.4181C92.9329 24.1558 93.5013 23.03 94.22 22.0406C94.9379 21.0396 95.7269 20.1335 96.5872 19.3223C98.387 17.6592 100.006 16.778 101.444 16.6787C102.087 16.6343 102.583 16.7586 102.932 17.0517C103.056 17.1488 103.121 17.2383 103.127 17.3202L103.134 17.4254C103.296 17.3907 103.553 17.3612 103.903 17.337ZM102.293 19.7917L102.17 19.8001C101.761 19.8284 101.536 19.5444 101.495 18.9482C100.661 19.2877 99.8004 19.8405 98.9136 20.6065C98.0267 21.3725 97.2482 22.2603 96.5778 23.2698C95.2138 25.2904 94.5657 26.9621 94.6335 28.2848C94.6787 28.9395 94.941 29.2503 95.4203 29.2172C95.8996 29.1841 96.591 28.8192 97.4944 28.1225C98.3977 27.4258 99.2708 26.461 100.114 25.2282C100.968 23.9945 101.594 22.9352 101.991 22.0503C102.399 21.1528 102.592 20.5522 102.571 20.2482C102.55 19.9325 102.457 19.7804 102.293 19.7917ZM111.146 20.6605C113.688 17.3368 115.93 15.608 117.871 15.474C118.35 15.4409 118.752 15.5599 119.076 15.8312C119.411 16.09 119.594 16.4474 119.626 16.9033C119.657 17.3593 119.383 18.1476 118.802 19.2684C118.233 20.3767 117.699 21.318 117.2 22.0925C116.934 22.4868 116.613 22.6969 116.239 22.7227C115.877 22.7477 115.581 22.6331 115.352 22.3787C115.135 22.1235 115.014 21.8147 114.989 21.4523C114.933 20.6456 115.302 19.7039 116.097 18.627L116.06 18.5944C115.676 18.6561 114.77 19.4822 113.341 21.0727C111.924 22.6624 110.718 24.0848 109.724 25.3398C108.741 26.5824 107.682 28.0886 106.548 29.8584C106.22 30.3862 105.927 30.6589 105.67 30.6767C105.425 30.6936 105.092 30.6403 104.672 30.5165C104.24 30.3819 103.981 30.2824 103.894 30.2179C103.796 30.1542 103.741 30.0405 103.73 29.8768C103.718 29.7132 103.752 29.5229 103.831 29.306C103.909 29.0774 104.063 28.7555 104.293 28.3402C104.511 27.9258 104.841 27.2569 105.282 26.3337C105.735 25.4097 106.437 24.0103 107.389 22.1357C108.34 20.261 108.908 19.1294 109.092 18.7407C109.483 17.9384 109.807 17.3522 110.063 16.9821C110.544 16.2794 111.409 15.8849 112.66 15.7985C112.941 15.7791 113.093 15.9448 113.117 16.2955C113.155 16.845 112.718 17.9148 111.806 19.5048L111.146 20.6605ZM125.938 17.9828C122.154 18.479 119.951 18.8132 119.329 18.9854L119.276 18.989C119.042 19.0051 118.915 18.8612 118.894 18.5573C118.873 18.2533 119.026 17.8258 119.352 17.2746C119.678 16.7235 120.104 16.3476 120.631 16.1468C121.157 15.946 121.747 15.8171 122.401 15.7602C125.063 15.5294 127.32 15.2091 129.171 14.7994C129.195 14.7977 129.354 14.728 129.65 14.5901C129.958 14.4514 130.229 14.374 130.462 14.3578C130.696 14.3417 130.921 14.4553 131.138 14.6988C131.366 14.9415 131.494 15.2616 131.521 15.659C131.549 16.0565 131.465 16.3678 131.269 16.5927C131.073 16.8177 130.705 17.0251 130.166 17.2151C125.322 21.5669 122.354 24.8554 121.262 27.0804C121.64 26.9368 122.608 26.6644 124.166 26.2632C128.229 25.2191 130.439 24.4792 130.796 24.0434C130.905 23.9184 131.03 23.851 131.17 23.8414C131.322 23.8309 131.49 23.878 131.673 23.9828C131.856 24.0759 131.978 24.5726 132.04 25.4728C132.058 25.73 131.958 26.06 131.739 26.4627C131.531 26.853 131.274 27.1291 130.968 27.2912C130.674 27.4525 129.007 27.9023 125.969 28.6407C121.926 29.6364 119.73 30.1464 119.379 30.1706C119.04 30.194 118.823 30.2031 118.729 30.1979C118.634 30.1926 118.552 30.1866 118.481 30.1797C118.41 30.1729 118.339 30.1602 118.267 30.1417C118.207 30.1223 118.159 30.108 118.123 30.0987C118.087 30.0895 118.044 30.0689 117.995 30.0371C117.946 30.0052 117.909 29.9843 117.885 29.9742C117.873 29.9633 117.798 29.9039 117.661 29.7958C117.524 29.6761 117.438 29.3707 117.404 28.8797C117.37 28.3887 117.374 28.0948 117.414 27.9981C117.901 26.8837 118.548 25.7878 119.354 24.7101C120.172 23.62 120.905 22.7529 121.553 22.1091C122.202 21.4652 123.012 20.6986 123.985 19.8092C124.957 18.9198 125.608 18.311 125.938 17.9828ZM146.879 22.1928L146.817 22.5671C146.822 22.6373 146.855 22.6996 146.918 22.754C146.992 22.8076 147.076 22.8312 147.169 22.8247C147.263 22.8182 147.336 22.7662 147.388 22.6687C148.97 20.2336 150.273 18.0997 151.298 16.2669C152.321 14.4225 153.068 13.0671 153.537 12.2007C154.017 11.3335 154.398 10.6435 154.68 10.1307C155.433 8.78656 156.189 7.57728 156.949 6.50286C153.847 7.5158 151.402 8.08403 149.613 8.20754C147.825 8.33105 146.531 8.30879 145.732 8.14075C144.933 7.96102 144.401 7.73933 144.136 7.47571C143.87 7.20039 143.727 6.91659 143.707 6.62432C143.686 6.32035 143.678 6.02727 143.682 5.74508C143.688 5.1573 144.006 4.65376 144.635 4.23444C145.275 3.81432 145.812 3.58932 146.244 3.55945C146.677 3.52958 146.898 3.57895 146.906 3.70755C146.915 3.83615 146.828 4.01837 146.645 4.25422C146.472 4.47758 146.389 4.63017 146.394 4.71201C146.42 5.08612 147.783 5.17993 150.484 4.99346C153.185 4.80698 156.264 4.23608 159.722 3.28075C161.62 1.50517 163.299 0.566931 164.761 0.466023C165.731 0.399021 166.393 0.629358 166.747 1.15703C166.98 1.46985 167.107 1.78993 167.13 2.11727C167.153 2.44462 166.982 2.78529 166.619 3.13927C166.268 3.49245 165.779 3.80815 165.152 4.08636C164.012 4.58796 162.655 5.01641 161.082 5.37171C160.475 6.27116 159.619 7.66347 158.516 9.54863C157.425 11.433 156.678 12.7062 156.278 13.3681C155.877 14.0301 155.236 15.2021 154.353 16.8841C153.483 18.5652 152.726 20.0212 152.082 21.252C151.438 22.4712 150.747 23.6819 150.007 24.8841C148.499 27.3611 147.09 28.6448 145.78 28.7352C145.231 28.7732 144.747 28.6597 144.329 28.3949C143.912 28.1301 143.68 27.6703 143.635 27.0156C143.589 26.3492 143.895 25.5 144.552 24.4679C145.22 23.4233 145.713 22.749 146.033 22.445C146.353 22.141 146.571 21.985 146.688 21.9769C146.805 21.9689 146.868 22.0408 146.879 22.1928ZM170.541 12.9823C170.594 13.7539 170.325 14.4538 169.734 15.0819C169.155 15.7093 168.468 16.0504 167.673 16.1053C167.416 16.123 167.242 16.0763 167.152 15.965C167.062 15.8421 167.009 15.6812 166.996 15.4825C166.982 15.2838 166.992 15.0892 167.026 14.899C166.615 15.0683 166.162 15.3169 165.668 15.6447C165.174 15.9725 164.572 16.4486 163.864 17.0731C163.155 17.6977 162.81 18.1502 162.83 18.4308C162.836 18.5243 162.974 18.5618 163.243 18.5432C163.523 18.5239 163.943 18.4009 164.503 18.1743C165.063 17.936 165.453 17.8091 165.675 17.7938C165.909 17.7776 166.062 17.7788 166.134 17.7974C166.291 17.8687 166.467 18.0386 166.662 18.3071C166.856 18.5639 166.959 18.7741 166.97 18.9378C166.981 19.0898 166.843 19.3049 166.556 19.583C166.27 19.8612 165.939 20.0838 165.563 20.2507C165.186 20.406 164.936 20.5231 164.812 20.6021C162.44 22.152 161.272 23.1841 161.308 23.6985C161.371 24.6104 162.18 25.0127 163.735 24.9053C164.729 24.8367 165.706 24.452 166.668 23.7513C167.484 23.1546 168.213 22.5581 168.853 21.9618C169.504 21.353 169.913 20.9782 170.079 20.8375C170.257 20.696 170.393 20.622 170.487 20.6155C170.791 20.5946 170.966 20.9231 171.013 21.6012C171.06 22.2792 171.05 22.7322 170.983 22.96C170.916 23.176 170.7 23.4552 170.336 23.7975C167.975 26.0045 165.678 27.1851 163.445 27.3393C162.252 27.4216 161.288 27.3237 160.552 27.0456C159.202 26.5398 158.484 25.6731 158.399 24.4456C158.288 22.8322 159.32 21.5334 161.496 20.5492C161.038 20.3811 160.734 20.1495 160.584 19.8545C160.434 19.5477 160.335 19.0553 160.289 18.3772C160.241 17.6874 160.507 16.9408 161.085 16.1373C161.675 15.3213 162.415 14.6359 163.305 14.0811C165.285 12.8284 167.083 12.1463 168.696 12.0349C169.082 12.0083 169.48 12.0748 169.89 12.2344C170.301 12.394 170.518 12.6433 170.541 12.9823ZM183.24 11.894C184.129 11.8327 184.594 12.1059 184.636 12.7139C184.659 13.0412 184.599 13.2861 184.458 13.4486C184.316 13.6111 184.024 14.1422 183.581 15.0421C183.149 15.9294 182.675 17.0663 182.16 18.4527C181.656 19.8267 181.349 20.9932 181.239 21.9522C181.212 22.0716 181.206 22.2365 181.22 22.4469C181.265 23.0899 181.462 23.3993 181.813 23.3751C182.164 23.3509 182.567 23.1585 183.024 22.7981C183.48 22.4259 183.882 22.0399 184.23 21.64C184.578 21.2283 184.913 20.8117 185.237 20.39C185.572 19.9674 185.772 19.7245 185.838 19.6612C185.904 19.5979 186.007 19.5614 186.148 19.5518C186.37 19.5364 186.516 19.6967 186.586 20.0325C186.656 20.3683 186.704 20.7174 186.729 21.0798C186.754 21.4422 186.736 21.696 186.676 21.8411C186.383 22.5309 185.69 23.3834 184.597 24.3986C183.516 25.413 182.502 25.9529 181.555 26.0183C180.62 26.0828 179.91 25.844 179.426 25.3019C178.943 24.7597 178.677 24.1437 178.629 23.454C178.581 22.7525 178.655 22.1307 178.853 21.5884C177.97 22.918 176.927 24.0649 175.725 25.0289C174.535 25.992 173.542 26.5011 172.747 26.556C171.952 26.6109 171.286 26.416 170.751 25.9714C170.066 25.4196 169.688 24.6176 169.615 23.5654C169.542 22.5015 169.702 21.4215 170.097 20.3253C170.502 19.2167 171.06 18.1973 171.771 17.2672C172.481 16.3254 173.273 15.4602 174.146 14.6716C175.982 13.0178 177.718 12.1343 179.355 12.0213C179.986 11.9777 180.508 12.0474 180.92 12.2304C181.332 12.4134 181.602 12.6591 181.729 12.9675C181.98 12.5272 182.196 12.248 182.376 12.1299C182.566 11.9993 182.854 11.9206 183.24 11.894ZM181.042 14.0016C179.043 14.1396 177.051 15.3932 175.065 17.7622C174.36 18.6096 173.724 19.6109 173.158 20.7659C172.603 21.9201 172.34 22.7018 172.368 23.111C172.396 23.5202 172.527 23.7167 172.761 23.7006C173.088 23.678 173.956 22.972 175.364 21.5827C176.77 20.1816 177.698 19.1602 178.147 18.5184C178.638 17.8032 179.603 16.2976 181.042 14.0016ZM185.413 25.2409L184.551 25.2652L184.236 25.2869C184.116 25.2599 183.989 25.1983 183.853 25.1019C183.705 25.0064 183.595 24.9377 183.521 24.8958C183.448 24.8538 183.407 24.7744 183.399 24.6575C183.39 24.5289 183.422 24.3094 183.495 23.999C185.428 18.8262 187.355 14.664 189.275 11.5125C189.486 11.169 189.844 10.8977 190.347 10.6985C190.861 10.4868 191.363 10.364 191.854 10.3301C192.146 10.3099 192.308 10.5278 192.34 10.9838C192.349 11.1124 192.314 11.291 192.236 11.5195C192.157 11.7364 191.947 12.1033 191.607 12.6202C191.267 13.137 190.861 13.7288 190.391 14.3957C189.92 15.0625 189.652 15.4451 189.589 15.5435C191.076 13.7728 192.434 12.4397 193.665 11.5442C194.906 10.6362 195.813 10.1625 196.386 10.1229C196.97 10.0826 197.426 10.2214 197.754 10.5394C198.092 10.845 198.274 11.1907 198.301 11.5765C198.327 11.9506 198.319 12.2683 198.279 12.5295C198.249 12.7782 198.174 13.0477 198.053 13.338C197.931 13.6166 197.824 13.8589 197.733 14.0649C197.652 14.2584 197.506 14.5211 197.294 14.8529C197.081 15.173 196.932 15.3947 196.846 15.5181C196.773 15.6406 196.607 15.8753 196.349 16.222C196.103 16.5679 195.969 16.7592 195.948 16.7959C196.253 16.4459 196.675 15.9293 197.215 15.2459C197.755 14.5626 198.209 13.9909 198.577 13.5309C198.956 13.07 199.431 12.5497 200.002 11.97C200.572 11.3785 201.108 10.8951 201.611 10.5198C202.819 9.6376 204.072 9.15172 205.369 9.06211C205.814 9.03143 206.197 9.14589 206.521 9.40549C206.844 9.66508 207.019 9.99362 207.047 10.3911C207.073 10.7769 206.665 11.7449 205.82 13.295C204.975 14.8335 204.13 16.3836 203.287 17.9454C202.454 19.4947 202.051 20.4623 202.078 20.8481C202.115 21.3859 202.236 21.7005 202.442 21.792C202.648 21.8718 202.89 21.8903 203.169 21.8476C203.448 21.8048 203.827 21.5966 204.306 21.2228C204.797 20.8483 205.229 20.4661 205.601 20.0762C206.204 19.4473 206.761 18.8391 207.272 18.2517C207.382 18.1384 207.507 18.0769 207.647 18.0672C207.869 18.0519 208.016 18.2121 208.086 18.5479C208.156 18.8837 208.204 19.2328 208.229 19.5952C208.254 19.9577 208.236 20.2114 208.175 20.3566C207.882 21.0347 207.189 21.8872 206.097 22.914C205.005 23.9409 203.927 24.4911 202.863 24.5646C202.734 24.5734 202.64 24.5741 202.581 24.5664C201.369 24.5326 200.51 24.263 200.006 23.7575C199.512 23.2395 199.239 22.6064 199.187 21.8582C199.136 21.11 199.324 20.1866 199.754 19.088C200.195 17.9886 200.689 16.9854 201.237 16.0783C201.785 15.1712 202.287 14.3554 202.742 13.6309C203.208 12.8939 203.439 12.4962 203.435 12.4377C203.431 12.3793 203.382 12.3533 203.289 12.3597C202.926 12.3848 202.16 13.025 200.99 14.2805C198.988 16.4274 197.274 18.4839 195.848 20.4501C195.473 20.9694 194.588 22.2815 193.195 24.3864C193.036 24.6323 192.763 24.7686 192.377 24.7952C192.003 24.8211 191.607 24.778 191.188 24.6659C190.768 24.5422 190.55 24.3634 190.534 24.1296C190.526 24.0127 191.342 22.3118 192.983 19.0269C194.623 15.7303 195.434 13.9417 195.414 13.6611C195.394 13.3689 195.209 13.2348 194.858 13.2591C194.519 13.2825 193.847 13.8457 192.843 14.9488C190.08 17.9822 187.983 20.9521 186.551 23.8584C186.457 24.0294 186.27 24.3007 185.99 24.6724C185.711 25.0441 185.518 25.2336 185.413 25.2409Z" fill="#555555"/>
</svg>
